<?xml version="1.0" ?><!DOCTYPE svg  PUBLIC '-//W3C//DTD SVG 1.1//EN'  'http://www.w3.org/Graphics/SVG/1.1/DTD/svg11.dtd'><!-- Uploaded to: SVGRepo, www.svgrepo.com, Transformed by: SVGRepo Tools -->
<svg fill="#000000" width="800px" height="800px" viewBox="0 0 32 32" style="fill-rule:evenodd;clip-rule:evenodd;stroke-linejoin:round;stroke-miterlimit:2;" version="1.1" xml:space="preserve" xmlns="http://www.w3.org/2000/svg" xmlns:serif="http://www.serif.com/" xmlns:xlink="http://www.w3.org/1999/xlink"><path d="M7.003,28.013l18,-0c0.796,-0 1.559,-0.316 2.122,-0.879c0.562,-0.562 0.878,-1.325 0.878,-2.121c0,-3.466 0,-10.547 0,-14.013c0,-0.796 -0.316,-1.559 -0.878,-2.121c-0.563,-0.563 -1.326,-0.879 -2.122,-0.879l-1,-0l0,-1.01c0,-1.656 -1.343,-3 -3,-3l-10,0c-1.656,0 -3,1.344 -3,3l0,1.01l-1,-0c-1.656,0 -3,1.343 -3,3c0,3.466 0,10.547 0,14.013c0,0.796 0.317,1.559 0.879,2.121c0.563,0.563 1.326,0.879 2.121,0.879Zm17,-18.013l0,16.013l1,-0c0.266,-0 0.52,-0.105 0.708,-0.293c0.187,-0.188 0.292,-0.442 0.292,-0.707c0,-3.466 0,-10.547 0,-14.013c0,-0.265 -0.105,-0.52 -0.292,-0.707c-0.188,-0.188 -0.442,-0.293 -0.708,-0.293l-1,-0Zm-4.006,16.013l2.006,-0l0,-19.023c0,-0.552 -0.447,-1 -1,-1c0,0 -10,0 -10,0c-0.552,0 -1,0.448 -1,1l0,19.023l1.994,-0l0,-5.001c0,-0.795 0.316,-1.558 0.879,-2.121c0.563,-0.563 1.326,-0.879 2.121,-0.879l2,0c0.796,0 1.559,0.316 2.122,0.879c0.562,0.563 0.878,1.326 0.878,2.121l0,5.001Zm-11.994,-16.013l-1,0c-0.552,0 -1,0.448 -1,1c0,3.466 0,10.547 0,14.013c0,0.265 0.106,0.519 0.293,0.707c0.188,0.188 0.442,0.293 0.707,0.293l1,-0l0,-16.013Zm9.994,16.013l-4,-0l0,-5.001c0,-0.265 0.106,-0.519 0.293,-0.707c0.188,-0.187 0.442,-0.293 0.707,-0.293c0,0 2,0 2,0c0.266,0 0.52,0.106 0.707,0.293c0.188,0.188 0.293,0.442 0.293,0.707l0,5.001Z"/><path d="M14.999,10l-1.008,0c-0.552,0 -1,0.448 -1,1c0,0.552 0.448,1 1,1l1.005,0l-0.002,1.005c-0.001,0.552 0.447,1 0.999,1.001c0.552,0.001 1,-0.446 1.001,-0.998l0.002,-1.008l1.007,0c0.552,0 1,-0.448 1,-1c0,-0.552 -0.448,-1 -1,-1l-1.004,0l0.001,-1.005c0.001,-0.552 -0.446,-1 -0.998,-1.001c-0.552,-0.001 -1.001,0.446 -1.002,0.998l-0.001,1.008Z"/></svg>