<?xml version="1.0" encoding="iso-8859-1"?>
<!-- Generator: Adobe Illustrator 19.0.0, SVG Export Plug-In . SVG Version: 6.00 Build 0)  -->
<svg version="1.1" id="Layer_1" xmlns="http://www.w3.org/2000/svg" xmlns:xlink="http://www.w3.org/1999/xlink" x="0px" y="0px"
	 viewBox="0 0 512 512" style="enable-background:new 0 0 512 512;" xml:space="preserve">
<g transform="translate(0 -1)">
	<g>
		<g>
			<path d="M503.467,495.933h-8.533V359.4c0-2.263-0.899-4.434-2.499-6.034l-25.6-25.6c-3.332-3.332-8.735-3.332-12.068,0
				L435.2,347.332l-19.566-19.566c-3.333-3.332-8.736-3.332-12.068,0L384,347.332l-19.566-19.566c-3.333-3.332-8.735-3.332-12.068,0
				L332.8,347.332l-19.566-19.566c-3.333-3.332-8.735-3.332-12.068,0L281.6,347.332l-19.566-19.566
				c-3.332-3.332-8.735-3.332-12.068,0l-25.6,25.6c-1.6,1.6-2.499,3.771-2.499,6.034v136.533h-76.8V359.11
				c66.713-4.392,119.467-59.886,119.467-127.71c0-70.693-57.307-128-128-128s-128,57.307-128,128
				c0,67.824,52.754,123.318,119.467,127.71v136.823H8.533c-4.713,0-8.533,3.821-8.533,8.533S3.82,513,8.533,513H230.4h51.2h51.2
				H384h51.2h51.2h17.067c4.713,0,8.533-3.821,8.533-8.533S508.18,495.933,503.467,495.933z M25.6,231.4
				c0-61.267,49.666-110.933,110.933-110.933S247.467,170.133,247.467,231.4c0,58.396-45.12,106.253-102.4,110.61v-55.875
				l23.101-23.101c3.333-3.332,3.333-8.735,0-12.068c-3.332-3.333-8.735-3.333-12.068,0l-19.566,19.566l-19.566-19.566
				c-3.332-3.333-8.735-3.333-12.068,0c-3.332,3.332-3.332,8.735,0,12.068L128,286.135v55.875
				C70.72,337.653,25.6,289.796,25.6,231.4z M238.933,362.935L256,345.868l17.067,17.067v132.999h-34.133V362.935z M290.133,362.935
				l17.067-17.067l17.067,17.067v132.999h-34.133V362.935z M341.333,362.935l17.067-17.067l17.067,17.067v132.999h-34.133V362.935z
				 M392.533,362.935l17.067-17.067l17.067,17.067v132.999h-34.133V362.935z M443.733,495.933V362.935l17.067-17.067l17.067,17.067
				v132.999H443.733z"/>
			<path d="M381.867,197.267h99.2c17.216,0,30.933-15.026,30.933-33.067c0-16.254-11.134-30.06-25.93-32.636
				C483.286,98.161,463.143,77.8,435.2,77.8c-18.245,0-33.64,6.953-46.094,18.406c-5.435,4.998-9.5,10.008-12.28,14.233
				c-20.144,2.672-35.493,21.155-35.493,43.248C341.333,177.589,359.3,197.267,381.867,197.267z M381.867,127.174
				c3.174,0,6.085-1.761,7.558-4.572c0.358-0.682,1.227-2.121,2.608-4.06c2.367-3.326,5.247-6.666,8.626-9.773
				c9.503-8.739,20.934-13.901,34.542-13.901c20.236,0,34.133,15.625,34.133,44.8c0,4.713,3.82,8.533,8.533,8.533h3.2
				c7.426,0,13.867,7.055,13.867,16s-6.441,16-13.867,16h-99.2c-12.777,0-23.467-11.707-23.467-26.513
				C358.4,138.881,369.089,127.174,381.867,127.174z"/>
			<path d="M213.333,26.6c18.873,0,34.133,15.26,34.133,34.133c0,4.713,3.82,8.533,8.533,8.533s8.533-3.821,8.533-8.533
				c0-23.584,19.083-42.667,42.667-42.667c4.713,0,8.533-3.821,8.533-8.533S311.913,1,307.2,1
				c-22.298,0-41.715,12.204-51.977,30.293c-9.261-13.16-24.557-21.76-41.89-21.76c-4.713,0-8.533,3.821-8.533,8.533
				S208.621,26.6,213.333,26.6z"/>
		</g>
	</g>
</g>
<g>
</g>
<g>
</g>
<g>
</g>
<g>
</g>
<g>
</g>
<g>
</g>
<g>
</g>
<g>
</g>
<g>
</g>
<g>
</g>
<g>
</g>
<g>
</g>
<g>
</g>
<g>
</g>
<g>
</g>
</svg>
