<?xml version="1.0" standalone="no"?>
<!DOCTYPE svg PUBLIC "-//W3C//DTD SVG 20010904//EN"
 "http://www.w3.org/TR/2001/REC-SVG-20010904/DTD/svg10.dtd">
<svg version="1.0" xmlns="http://www.w3.org/2000/svg"
 width="512.000000pt" height="512.000000pt" viewBox="0 0 512.000000 512.000000"
 preserveAspectRatio="xMidYMid meet">

<g transform="translate(0.000000,512.000000) scale(0.100000,-0.100000)"
fill="#000000" stroke="none">
<path d="M1455 4315 c-594 -354 -1092 -655 -1107 -669 l-28 -24 0 -1705 c0
-938 3 -1713 6 -1722 4 -8 20 -23 37 -31 27 -14 244 -15 2210 -9 l2181 8 23
23 23 23 0 1709 c0 1614 -1 1711 -17 1730 -29 33 -2185 1306 -2218 1309 -25 3
-226 -114 -1110 -642z m2151 -147 l1034 -613 0 -1617 0 -1618 -265 0 c-146 0
-265 3 -265 8 0 4 9 36 21 72 36 116 78 298 98 433 112 733 -34 1470 -416
2102 -118 197 -211 314 -382 485 -267 266 -459 384 -741 457 -80 21 -111 24
-200 20 -90 -4 -124 -10 -235 -47 -269 -88 -325 -138 -424 -376 l-56 -136
-250 -127 c-277 -140 -302 -160 -324 -261 -19 -91 -4 -130 140 -346 136 -205
142 -211 214 -202 19 2 35 2 35 0 0 -3 -17 -24 -38 -47 -22 -22 -52 -63 -67
-91 -16 -27 -61 -103 -101 -170 -186 -306 -285 -606 -315 -954 -21 -254 8
-497 97 -807 l6 -23 -346 0 -346 0 0 1618 0 1618 713 424 c391 234 856 511
1032 617 176 106 326 192 333 193 8 0 479 -276 1048 -612z m-1066 -535 c148
-224 180 -319 180 -543 0 -156 15 -230 61 -302 42 -65 110 -125 177 -156 50
-23 70 -26 162 -26 92 0 112 3 161 26 95 44 181 135 215 230 9 24 19 83 22
133 l7 89 61 -89 c269 -395 437 -842 500 -1332 23 -175 23 -533 0 -703 -27
-203 -60 -355 -117 -543 l-30 -97 -291 2 -292 3 -12 65 c-53 284 -246 510
-530 624 -41 16 -64 35 -102 83 l-50 62 24 46 c48 96 41 206 -21 310 -24 39
-40 85 -55 158 -29 143 -73 232 -157 316 -58 58 -91 79 -220 145 l-153 77 0
118 0 119 48 6 c26 3 103 11 172 17 69 6 133 15 143 21 22 11 117 200 117 233
0 49 -68 88 -115 67 -14 -6 -39 -41 -62 -84 l-38 -73 -392 -35 -393 -36 -43
65 -43 64 51 51 c77 78 99 131 101 245 l1 94 139 71 138 71 61 150 c65 162 88
201 140 241 32 24 310 123 347 124 11 0 43 -40 88 -107z m232 53 c158 -59 341
-177 430 -276 120 -134 186 -363 142 -492 -65 -193 -346 -213 -435 -31 -21 43
-25 67 -30 228 -8 242 -29 319 -139 500 -27 45 -50 86 -50 89 0 10 18 7 82
-18z m-1302 -711 c0 -38 -24 -86 -58 -119 l-31 -29 -17 35 c-14 31 -15 39 -3
64 12 24 79 73 102 74 4 0 7 -11 7 -25z m450 -711 c0 -69 5 -134 10 -145 6
-11 88 -58 182 -105 260 -130 304 -182 351 -416 19 -94 30 -122 55 -154 42
-53 50 -108 24 -165 -32 -72 -123 -164 -200 -201 -60 -30 -75 -33 -157 -33
-110 0 -172 25 -259 104 -65 59 -102 66 -141 26 -43 -42 -34 -80 30 -142 111
-104 220 -148 370 -148 136 0 229 33 338 118 23 17 42 26 45 20 4 -5 29 -37
55 -70 44 -55 55 -63 117 -83 158 -51 303 -172 377 -316 42 -81 73 -170 73
-211 l0 -23 -926 2 -927 3 -28 95 c-165 547 -87 1110 223 1610 35 58 80 131
99 163 41 71 104 126 190 167 102 48 99 51 99 -96z"/>
<path d="M2158 3324 c-30 -16 -58 -61 -58 -94 0 -53 57 -110 110 -110 53 0
110 57 110 110 0 34 -28 78 -60 95 -36 19 -67 19 -102 -1z"/>
<path d="M2764 2410 c-71 -28 -137 -89 -171 -158 -23 -47 -28 -70 -28 -132 0
-136 2 -139 319 -457 263 -266 282 -283 316 -283 34 0 53 17 316 283 317 318
319 321 319 457 0 62 -5 85 -28 132 -57 116 -173 184 -303 176 -92 -6 -144
-32 -233 -115 l-71 -65 -71 65 c-92 86 -142 110 -238 114 -59 2 -88 -1 -127
-17z m172 -150 c14 -6 73 -55 129 -110 137 -133 133 -133 274 4 115 112 142
126 218 111 50 -9 109 -69 118 -119 16 -82 1 -103 -246 -351 l-229 -230 -229
230 c-188 189 -231 237 -241 272 -38 125 84 239 206 193z"/>
<path d="M2108 1694 c-30 -16 -58 -61 -58 -94 0 -53 57 -110 110 -110 53 0
110 57 110 110 0 34 -28 78 -60 95 -36 19 -67 19 -102 -1z"/>
</g>
</svg>
